<?xml version="1.0" encoding="UTF-8" standalone="no"?>
<svg
   xmlns:dc="http://purl.org/dc/elements/1.1/"
   xmlns:cc="http://creativecommons.org/ns#"
   xmlns:rdf="http://www.w3.org/1999/02/22-rdf-syntax-ns#"
   xmlns:svg="http://www.w3.org/2000/svg"
   xmlns="http://www.w3.org/2000/svg"
   xmlns:sodipodi="http://sodipodi.sourceforge.net/DTD/sodipodi-0.dtd"
   xmlns:inkscape="http://www.inkscape.org/namespaces/inkscape"
   viewBox="0 0 64 64"
   aria-labelledby="title"
   aria-describedby="desc"
   role="img"
   version="1.1"
   id="svg10"
   sodipodi:docname="Orion_sun-and-moon.svg"
   inkscape:version="1.0.2 (e86c870879, 2021-01-15)">
  <metadata
     id="metadata16">
    <rdf:RDF>
      <cc:Work
         rdf:about="">
        <dc:format>image/svg+xml</dc:format>
        <dc:type
           rdf:resource="http://purl.org/dc/dcmitype/StillImage" />
      </cc:Work>
    </rdf:RDF>
  </metadata>
  <defs
     id="defs14" />
  <sodipodi:namedview
     pagecolor="#ffffff"
     bordercolor="#666666"
     borderopacity="1"
     objecttolerance="10"
     gridtolerance="10"
     guidetolerance="10"
     inkscape:pageopacity="0"
     inkscape:pageshadow="2"
     inkscape:window-width="1920"
     inkscape:window-height="1011"
     id="namedview12"
     showgrid="false"
     inkscape:zoom="12.476553"
     inkscape:cx="32"
     inkscape:cy="32"
     inkscape:window-x="0"
     inkscape:window-y="0"
     inkscape:window-maximized="1"
     inkscape:current-layer="svg10" />
  <title
     id="title2">Sun And Moon</title>
  <desc
     id="desc4">A solid styled icon from Orion Icon Library.</desc>
  <path
     data-name="layer2"
     d="M36.4 20.4a16 16 0 1 0 16 16 16 16 0 0 0-16-16zm0 28a12 12 0 0 1-10.3-5.8l2.5.3A13.7 13.7 0 0 0 42 25.8a12 12 0 0 1-5.6 22.6z"
     fill="#202020"
     id="path6"
     style="fill-opacity:1;fill:#afb2b1" />
  <path
     data-name="layer1"
     d="M36.4 16.4a2 2 0 0 0 2-2v-8a2 2 0 1 0-4 0v8a2 2 0 0 0 2 2zm-20 20a2 2 0 0 0-2-2h-8a2 2 0 0 0 0 4h8a2 2 0 0 0 2-2zm3-14.1a2 2 0 0 0 2.8-2.8l-5.7-5.7a2 2 0 0 0-2.8 2.8zM59 13.8a2 2 0 0 0-2.8 0l-5.7 5.7a2 2 0 1 0 2.8 2.8l5.7-5.7a2 2 0 0 0 0-2.8zM19.4 50.5l-5.7 5.7a2 2 0 1 0 2.9 2.8l5.7-5.7a2 2 0 1 0-2.8-2.8z"
     fill="#202020"
     id="path8"
     style="fill-opacity:1;fill:#afb2b1" />
</svg>
